<svg width="104" height="46" viewBox="0 0 104 46" fill="none" xmlns="http://www.w3.org/2000/svg">
  <path
    d="M5.87638 20.8922V0H22.4254V3.58177H10.085V8.38682H20.5467V11.9686H10.085V17.3105H22.7293V20.8922H5.86719H5.87638Z"
    fill="#1D2939" />
  <path
    d="M24.0156 20.8922L32.6631 0H37.5993L46.0349 20.8922H41.5684L34.7628 3.88099H35.2325L28.4545 20.8922H24.0156ZM28.4821 15.964L29.6056 12.3822H41.4763L41.5684 15.964H28.4821Z"
    fill="#1D2939" />
  <path
    d="M48.7905 20.8922V0H58.939C60.1915 0 61.3242 0.246414 62.3465 0.730438C63.3687 1.21446 64.1699 1.89209 64.7685 2.74573C65.3579 3.59938 65.6618 4.57623 65.6618 5.66749C65.6618 8.29002 64.4185 10.0589 61.9413 10.9478C63.1293 10.9478 63.9949 11.203 64.5291 11.7222C65.0724 12.2414 65.3395 12.9631 65.3395 13.9047V20.8922H61.1217V14.9255C61.1217 14.1687 60.9835 13.6583 60.698 13.3855C60.4125 13.1127 59.8784 12.9807 59.0864 12.9807H52.9991V20.8922H48.7812H48.7905ZM53.0083 9.46048H57.6958C58.9483 9.46048 59.8784 9.20526 60.5046 8.68603C61.1309 8.16681 61.444 7.41878 61.444 6.45073C61.444 4.54103 60.1915 3.58177 57.6958 3.58177H53.0083V9.46048Z"
    fill="#1D2939" />
  <path d="M70.1172 20.8922V0H74.335V17.3105H86.6754V20.8922H70.1264H70.1172Z" fill="#1D2939" />
  <path
    d="M91.6303 20.8922V12.5318L83.5078 0H88.2874L93.8774 8.77404L99.3753 0H103.998L95.8482 12.5318V20.8922H91.6303Z"
    fill="#1D2939" />
  <path
    d="M0.00921823 45.9997V42.1187H4.00602C4.71514 42.1187 5.20322 41.9867 5.47029 41.7315C5.73736 41.4762 5.8755 41.0098 5.8755 40.3322V25.1074H10.0933V41.8195C10.0933 43.0955 9.69734 44.1076 8.90535 44.8644C8.11335 45.6213 7.0543 45.9997 5.71896 45.9997H0H0.00921823Z"
    fill="#1D2939" />
  <path
    d="M12.4062 45.9997L21.0537 25.1074H25.9899L34.4255 45.9997H29.9591L23.1534 28.9884H23.6231L16.8451 45.9997H12.4062ZM16.8727 41.0714L17.9963 37.4896H29.867L29.9591 41.0714H16.8727Z"
    fill="#1D2939" />
  <path
    d="M37.1694 45.9997V25.1074H43.7263L49.2887 41.7051H49.1598L54.5288 25.1074H61.0581V45.9997H56.9324V29.1116L57.0613 29.138L51.499 45.9997H46.8759L41.157 29.138L41.2859 29.1116V45.9997H37.1602H37.1694Z"
    fill="#1D2939" />
  <path fill-rule="evenodd" clip-rule="evenodd"
    d="M95.8696 40.5434V25.1074H65.3594V45.9997L71.0599 40.5434H95.8696ZM76.0523 32.641C76.0523 33.6325 75.2112 34.4363 74.1736 34.4363C73.136 34.4363 72.2949 33.6325 72.2949 32.641C72.2949 31.6495 73.136 30.8457 74.1736 30.8457C75.2112 30.8457 76.0523 31.6495 76.0523 32.641ZM80.6111 34.4363C81.6487 34.4363 82.4898 33.6325 82.4898 32.641C82.4898 31.6495 81.6487 30.8457 80.6111 30.8457C79.5735 30.8457 78.7324 31.6495 78.7324 32.641C78.7324 33.6325 79.5735 34.4363 80.6111 34.4363ZM88.9351 32.641C88.9351 33.6325 88.094 34.4363 87.0564 34.4363C86.0188 34.4363 85.1777 33.6325 85.1777 32.641C85.1777 31.6495 86.0188 30.8457 87.0564 30.8457C88.094 30.8457 88.9351 31.6495 88.9351 32.641Z"
    fill="#1D2939" />
</svg>